<?xml version="1.0" encoding="UTF-8"?>
<svg width="256px" height="256px" viewBox="0 0 256 256" version="1.1" xmlns="http://www.w3.org/2000/svg">
    <g stroke="none" stroke-width="1" fill="none" fill-rule="evenodd">
        <rect fill="#424852" x="0" y="0" width="256" height="256" />
        <g transform="translate(10.000000, 48.000000)">
            <g>
                <g transform="translate(47.327913, 0.000000)" fill="#FFFFFF">
                    <path d="M70.6494271,10.8289948 C44.0596541,10.8289948 22.8438005,25.9308228 11.2844119,48.0139006 C6.27425816,57.5853077 25.5036457,68.4682065 25.5036457,80.001393 C25.5036457,91.5431354 6.27846701,102.433625 11.2955659,112.010185 C22.8586782,134.081673 44.0682038,149.173791 70.6494271,149.173791 C97.229553,149.173791 118.438266,134.082919 130.001856,112.012918 C135.019847,102.435697 115.795208,91.5442335 115.795208,80.001393 C115.795208,68.4749317 134.388336,57.5979999 129.383638,48.0306456 C117.827181,25.9384574 97.2459203,10.8289948 70.6494271,10.8289948 Z M1.42838861,120.018836 C-5.39911743,108.2412 14.6734469,94.5699505 14.6734469,80.001393 C14.6734469,65.4428279 -5.40448083,51.7800371 1.41434407,40.0074772 C15.2567034,16.1089308 41.1035481,0 70.6494271,0 C100.173594,0 126.011987,16.1055926 139.853367,40.0000484 C146.67385,51.7742891 126.597566,65.4397654 126.597566,80.001393 C126.597566,94.5729441 146.668523,108.246818 139.839419,120.026096 C125.994633,143.906472 100.163679,160 70.6494271,160 C41.1135376,160 15.2741816,143.90321 1.42838861,120.018836 Z" />
                </g>
                <g transform="translate(78.027100, 49.280000)" fill="#FFFFFF">
                    <polyline points="19.870689 50.6936844 -3.55271368e-14 30.5683258 19.870689 10.436935 25.3296695 15.9624106 10.917961 30.5683258 25.3296695 45.1682088 19.870689 50.6936844" />
                    <polyline points="60.2157661 50.6936844 54.7567856 45.1676568 69.1684942 30.5683261 54.7567856 15.9629627 60.2157661 10.436935 80.0864552 30.5683261 60.2157661 50.6936844" />
                    <polyline points="38.3033321 61.1306194 30.5446015 59.7549312 41.0583905 1.42108547e-14 48.7968634 1.37365319 38.3033321 61.1306194" />
                </g>
                <g transform="translate(0.000000, 54.400000)" fill="#4CEFE3">
                    <path d="M53.9889843,21.8222878 L33.7082406,1.52779438 C31.6735121,-0.509264794 28.3802083,-0.509264794 26.3454798,1.52779438 C24.3126525,3.56342672 24.3126525,6.85943888 26.3454798,8.89507121 L37.7420505,20.2960391 L5.2073079,20.2960391 C2.33036059,20.2960391 -1.42108547e-14,22.6303577 -1.42108547e-14,25.507353 C-1.42108547e-14,28.3829215 2.33036059,30.7158132 5.2073079,30.7158132 L37.7420505,30.7158132 L26.3454798,42.1167811 C24.3126525,44.150511 24.3126525,47.4498525 26.3454798,49.4821555 C28.3802083,51.5196903 31.6735121,51.5196903 33.7082406,49.4821555 L53.9889843,29.1905158 C54.9676122,28.2131269 55.5137236,26.8885391 55.5137236,25.507353 C55.5137236,24.1233133 54.9676122,22.8011035 53.9889843,21.8222878" />
                    <path d="M234.346708,21.8222878 L214.065964,1.52779438 C212.031236,-0.509264794 208.737932,-0.509264794 206.703203,1.52779438 C204.670376,3.56342672 204.670376,6.85943888 206.703203,8.89507121 L218.099774,20.2960391 L185.565031,20.2960391 C182.688084,20.2960391 180.357724,22.6303577 180.357724,25.507353 C180.357724,28.3829215 182.688084,30.7158132 185.565031,30.7158132 L218.099774,30.7158132 L206.703203,42.1167811 C204.670376,44.150511 204.670376,47.4498525 206.703203,49.4821555 C208.737932,51.5196903 212.031236,51.5196903 214.065964,49.4821555 L234.346708,29.1905158 C235.325336,28.2131269 235.871447,26.8885391 235.871447,25.507353 C235.871447,24.1233133 235.325336,22.8011035 234.346708,21.8222878" transform="translate(208.114585, 25.505153) scale(-1, 1) translate(-208.114585, -25.505153) " />
                </g>
            </g>
        </g>
    </g>
</svg>